<?xml version="1.0" encoding="UTF-8" standalone="no"?>
<svg width="416.41" xmlns="http://www.w3.org/2000/svg" height="300.85">
 <g fill-rule="evenodd">
  <path id="path3" d="m246.93 27.648c1.164-10.403 10.517 3.042 13.432 6.317 3.253-8.05 21.168 11.128 22.907 16.582 10.477-6.789 12.478 12.973 15.011 18.161 0.94202-7.032-0.896-27.818 7.9-16.582 2.718 3.471 5.997 14.592 7.899 19.345 2.161 5.396 5.1 9.406 8.689 13.818 1.671-1.672 4.446-11.482 5.53-11.844 3.398-1.134 6.521 1.543 6.115 4.796-1.062 8.497-1.198 17.011 3.364 24.42 1.437-2.137 5.092-13.646 7.9-12.24 2.745 1.373 5.478 3.604 2.766 6.317-5.231 5.235-8.318 21.101-3.555 26.453 0.83002-3.837 5.814-17.297 12.64-10.265 3.681 3.792-2.627 6.701-3.949 10.265-3.811 10.27 8.057 17.721 8.689 27.636 11.581-6.444 23.637-13.72 37.918-13.423 3.373 0.069992 13.914 1.36 8.69 5.527-1.943 1.551-17.617 0.603-21.33 1.579 3.557-0.14 9.416-0.89 11.851 2.763 0.931 1.397 22.244 3.795 15.799 8.291-4.562 3.182-23.579-3.039-30.809 0-2.171 0.91301-15.019 10.229-14.615 11.845 2.329 9.324-14.172 20.53-22.12 20.53-15.57 0-10.605 18.353-19.354 26.846-4.669-7.019-0.47998-16.55 3.16-22.898-4.501 3.537-5.039 15.589-7.109 16.582-10.077 4.835 1.907-21.378 2.37-22.899-3.535 6.207-8.648 10.376-10.271 18.162-6.566-3.476-2.865 8.519-9.479 0.789-4.431-5.178-1.041-12.018 3.159-17.371-6.979 0.181-13.268-2.778-20.144-5.527-8.456-3.382-14.356-3.424-22.91-5.132-10.963-2.188-11.676-1.034-19.749 4.343-8.37 5.574-5.397 14.736 1.58 21.714 2.572 2.572 5.563 1.804 8.295 4.344 1.31 1.218 4.003 6.765 4.739 7.895 4.107 6.3 7.899 8.891 7.899 16.583 0 2.915 9.843 9.637 4.739 11.844-2.348 1.016-12.861-6.686-15.799-7.896-0.026001 3.669 7.389 9.401 4.74 14.212-3.98 7.23-11.061-4.299-11.061 2.764 0 1.799-18.115-3.718-21.329-5.132-17.508-7.706-27.92-28.662-37.92-45.798-13.242-22.691-39.652-26.185-63.199-18.951-5.387 1.654-11.427 7.107-16.984 7.107-2.344 0-11.741 1.863-13.036 3.948-2.976 4.792 6.352 12.176 9.48 15.792 6.634 7.669 6.021 5.361 14.22 7.106 6.588 1.402 20.189 7.15 22.12 13.424 2.213 7.193-2.328 5.992-7.899 3.158 7.22 7.651-5.168 5.2-3.16 12.634-7.14 0.72299-7.936-6.656-12.641-10.265-0.195-0.149-12.799-5.527-13.825-5.527-5.735 0-15.489-7.546-20.934-10.266-9.493-4.741-8.255-13.751-11.85-22.109-5.839 7.114-14.888 4.57-7.9-3.947-2.279 0.883-10.791 2.995-12.64 0-1.672-2.707 4.598-8.654 1.58-11.845-2.673-2.825-9.794 0.789-13.034 0.789-10.435 0-0.877 34.724 1.185 39.876 9.702 24.24 38.894 31.274 60.039 41.851 14.53 7.267 41.744-1.186 57.67-1.186 15.253 0 34.473-2.96 51.349-4.737 32.791-3.453 68.189 4.244 94.008 25.268 5.442 4.432 12.755 10.011 7.111 17.371-7.979-4.519-25.228-15.546-35.154-12.239-2.814 0.93799-12.596-6.571-16.195-8.291-8.309-3.971-16.292-6.087-25.281-7.106-33.74-3.827-64.252 8.305-96.897 9.787-12.199 0.55399-42.261 10.137-52.014 3.638-11.069-7.377-25.381-10.537-36.734-18.162-12.403-8.33-23.175-16.975-31.6-29.61-6.192-9.287-16.589-24.393-16.589-35.582 0-5.084 0.296-9.591 1.58-14.558 0.977-3.778 7.1-12.021 7.11-15.005 0.011-3.218 0.07-2.333-2.371-3.552-4.245-2.121-1.872-10.998-0.79-14.608-9.706 5.397-5.851-6.676-5.529-10.265 0.447-4.998 4.833-4.643 0.79-8.686-3.692-3.692 0.201-7.507 2.37-11.844-16.131 4.217-2.004-17.167 1.58-21.319-19.903 3.25 2.604-22.26 5.53-26.847-8.788 5.626-10.999-2.839-7.11-8.686 3.53-5.307 11.829-7.89 16.589-12.634-13.658 1.521-5.637-8.062 0-11.844 7.508-5.037 16.638-8.631 25.28-11.055-7.839-12.734 35.64-16.939 44.239-19.741-11.383-12.458 42.66-9.269 42.66-9.476 0-9.261 48.579 4.543 54.509 6.317-8.42-6.583-1.897-9.831 4.74-8.686 6.444 1.112 12.42 6 18.169 8.686 11.56 5.402 21.721 12.504 33.18 18.161"/>
  <g fill="#3f3f3f">
   <path id="path5" d="m222.44 18.962c7.8 3.422 17.453 12.703 23.698 18.951 6.979 6.981 16.25 11.561 23.7 18.162 1.502 1.331 2.258 4.334 3.95 5.527 1.703 1.201 5.564 0.142 7.9 1.579 1.72 1.058 6.212 5.476 7.109 7.106 0.711 1.291-4.432 3.867-1.579 5.528 3.143 1.83 4.795-0.028999 8.689-1.974 3.043-1.52 6.946 5.311 10.27 5.922 0.26199-6.196-2.065-11.949-1.581-18.161 3.043 7.715 10.346 16.113 12.246 23.688 1.772 7.068 10.492 21.354 11.454 6.316-0.452 9.156 10.549 14.68 8.296 23.689-1.304 5.208 2.21 11.288 5.926 15.002 3.08 3.081 4.104 0.179 7.107 3.948 1.756 2.204 2.829 7.572 3.952 10.265 2.47 5.923 14.216 19.742 10.269 25.663-3.438 5.16-16.297 17.221-17.38 5.132-4.813 1.893-6.938-4.346-11.851 1.58 1.428-10.976-12.428-3.826-16.984-0.78999-6.222 4.146-11.889 4.737-18.959 4.737-7.896 0-26.469-18.353-33.574-13.028-5.313 3.981-14.942 1.941-21.271 5.103-3.136 1.566-8.034 5.132-11.118 7.926-5.453-6.322-6.258 4.626-6.6 9.419-0.55701 7.786-1.091 22.325 6.006 27.645 3.874 2.903 18.155 16.861 13.232 22.158-2.204 2.371-15.376-0.653-17.38-1.58-4.589-2.122-8.918-8.122-12.64-11.844-6.316-6.316-11.312-13.804-16.589-21.714-15.765-23.63-31.366-36.976-62.468-29.202-13.16 3.29-23.566 7.143-36.281 12.226-15.825 6.326 0.49499 18.509 6.319 27.241 3.624 5.433 7.358 7.498 13.43 8.291 5.111 0.66699 11.261-4.252 11.849 4.737-5.101-3.602-8.869-1.391-11.059 3.158-6.799-12.311-28.946-9.188-36.339-19.74-3.882-5.54-0.875-16.671-6.32-22.108-4.775-4.769-11.007-3.541-15.8-0.789 0.936-15.529-9.121-10.801-18.96-17.372 2.054-3.023 1.771-14.404-3.16-9.476-3.73 3.727-5.697 8.544-10.27 11.843 1.101-3.472 10.958-22.037 6.32-23.687-4.169-1.483-12.494 14.604-15.01 17.372 0.514-7.195 4.878-14.491 8.076-20.881 2.36-4.717 13.928-9.953 5.75-12.678-8.553-2.852-19.003 27.957-21.722 33.558-1.359-7.706 20.435-40.376 18.96-41.85-6.571-6.567-18.455 21.795-22.91 23.688 4.089-16.134 18.721-34.078 27.65-45.008 1.885-2.308 14.145-13.957 5.53-12.634-3.352 0.51499-7.975 7.441-11.06 9.476-3.285-8.165-20.216 14.507-25.28 18.161 2.518-5.931 5.987-10.874 10.27-15.792 3.848-4.418 12.137-9.263 14.615-14.213 1.185-2.368 8.294-4.127 8.294-7.106 0-4.563-4.243-3.226-6.714-1.58-6.586 4.388-12.176 10.196-17.775 15.792-0.527-0.526-1.053-1.053-1.58-1.58 5.333-7.323 12.714-10.606 19.75-15.002 3.055-1.909 24.264-16.592 9.479-14.213-3.997-9.75-17.162 7.677-22.91 6.317 9.976-12.333 26.764-13.652 39.5-21.32 3.042-1.831 10.714-16.352 0.395-9.475-6.29 4.192-15.84 5.409-23.305 7.896 10.9-5.748 22.375-8.771 33.97-12.634 8.989-2.995 23.7-3.524 23.7-11.844 0-5.262 36.516-2.821 41.08-2.369 18.048 1.79 8.805-4.063-3.161-6.317 13.667-2.994 23.083 4.931 35.945 7.502 10.629 2.124 24.59 12.43 34.364 11.449-5.136-11.316-28.075-15.219-37.919-20.135-13.652-6.818-30.749-4.918-45.819-5.923 14.548-0.808 28.018-0.202 42.396 2.194 6.169 1.028 27.974 10.475 25.544 1.754 9.371 3.544 18.959 6.006 27.649 11.055 5.907 3.432 11.433 9.807 18.169 10.265-3.65-17.351-31.551-14.945-39.498-28.426 10.068 4.111 20.569 8.103 30.018 13.424"/>
   <path id="path7" d="m111.85 8.697c-2.916 4.007-8.366 3.273-13.43 3.948 2.288-3.568 8.513-4.23 13.43-3.948"/>
   <path id="path9" d="m66.026 25.279c-1.597 3.485-4.799 4.09-8.69 2.369 2.835-0.978 5.8-1.907 8.69-2.369"/>
  </g>
  <path id="path11" d="m231.92 60.022c-5.847 2.783-13.774-5.699-19.749-8.685-2.84-1.42-12.394-4.146-12.639-7.896-0.199-3.054 1.982-4.142 4.739-2.764 2.408 1.203 5.292 3.315 7.11 5.133 1.146 1.146 3.673-2.257 6.321-0.79 4.758 2.635 10.252 11.266 14.218 15.002"/>
  <path id="path13" d="m141.86 46.599c6.821 3.202 17.379 3.157 23.349 7.136 8.872 5.913 7.64 15.155 14.571 22.08 2.012 2.011 14.22 11.019 7.109 10.265-3.197-0.339-9.764-7.169-10.665-9.871-10.716-32.147-42.437-21.249-67.544-14.607 5.079 8.04-42.735 26.909-44.239 18.161 7.229-2.968 19.931-6.042 26.069-11.055-5.295-0.777-10.995 3.743-15.009 3.159-3.034-0.44099-10.57-6.044-4.74-7.501 15.534-3.881 35.833-4.372 49.769-12.239h-19.75c-3.589 0-9.333-5.337-4.655-5.571 15.337-0.767 30.399-0.764 45.735 0.042999"/>
  <g fill="#3f3f3f">
   <path id="path15" d="m276.95 50.547c-0.016998 0.851 2.053 1.396 0 1.58-2.056-2.418-4.154-4.779-6.319-7.107 3.161 1.135 4.43 2.983 6.319 5.527"/>
   <path id="path17" d="m27.316 48.968c-0.955 0.775-1.334 1.458 0 1.579-0.962-0.02-2.229 0.23-3.16 0 0.997-1.657 2.221-0.817 3.16-1.579"/>
   <path id="path19" d="m281.69 56.864c-1.044-1.043-1.377-0.336-1.581-1.579 1.247 0.201 0.53699 0.535 1.581 1.579"/>
  </g>
  <path id="path21" d="m207.44 60.022c3.13-2.461 14.949 2.908 7.11 7.107-3.921 2.1-13.018-1.344-17.381-2.369-4.438-1.042-18.437-0.957-17.38-5.527 1.605-6.942 22.062-1.586 27.651 0.789"/>
  <path id="path23" fill="#3f3f3f" d="m291.96 63.181c-0.34399-2.031 0.12-3.19-1.58-4.738 3.183 1.251 1.349 2.368 1.58 4.738"/>
  <path id="path25" d="m78.667 108.19c6.369-1.538 24.009-16.141 30.019-13.424 6.193 2.8-20.361 19.522-24.489 22.899 5.869-3.295 31.421-16.225 24.884-3.159-3.197 6.39-14.643 12.738-20.145 18.162 1.481-1.496 3.076-2.023 4.74-3.159 2.366 6.853-14.16 13.603-15.405 9.871-2.041-6.119 8.525-15.799 13.824-18.556-3.893 0.493-31.116 12.253-21.33-1.58-4.781 2.684-13.013 5.287-11.85-3.158 0.509-3.697 10.462-9.274 13.43-11.054 9.838-5.9 20.297-13.756 30.02-21.32 3.487-2.713 10.062-6.951 14.22-7.106 11.144-0.417 5.536 3.979 0 7.896-11.22 7.937-25.279 18.594-37.918 23.688"/>
  <path id="path27" d="m276.95 90.027c6.059-0.744 13.431 12.543 13.431 18.161 0 5.257-4.241 6.18-9.479 7.896-0.125 0.041-0.436 4.518-5.53 3.158-1.702-0.45499-6.946-7.4-7.506-9.08-0.83301-2.5 1.298-7.1 4.346-6.711 1.405 0.179 4.787 9.62 4.738 9.475-1.598-6.604 0.73801-8.525 7.901-7.896-3.407-10.817-22.418-14.355-25.281-2.369-0.77698 3.256 1.248 7.673 3.162 10.265 1.708 2.313 13.538 8.239 8.689 10.66-7.759 3.872-14.3-11.681-16.195-17.372-3.707-11.131 12.309-21.413 21.724-16.187"/>
  <path id="path29" d="m222.44 105.03c-0.185 3.333 2.339 4.38-1.58 6.316 9.931 5.892-3.538 11.971-9.085 13.819-2.582 0.86-10.665 5.304-10.665 0 0-6.448 10.142-5.459 14.22-9.081 11.348-10.077-11.199 0.857-13.431 0.79-4.525-0.138-8.419-2.14-3.95-7.107 1.907-2.12 9.73-1.943 12.639-3.158-5.02-1.386-18.898-5.162-23.699-2.763-5.442 2.719-6.866-4.452 1.15-6.168 10.972-2.351 34.004-8.023 34.401 7.352"/>
  <path id="path31" d="m83.406 161.09c-1.052 0.022995-2.107 0-3.16 0-0.088005-7.694 26.878-48.947 35.55-44.613 7.709 3.854-10.093 16.016-13.43 19.346-7.393 7.376-14.069 15.77-18.96 25.267"/>
  <path id="path33" d="m189.26 140.56c-7.058 2.309-34.76 4.749-34.76-3.553 0-1.096 35.376-6.463 34.76 3.553"/>
  <path id="path35" d="m329.88 150.83c-2.549 5.294-2.118 0.735-5.53 1.58-0.181 0.044998-5.278 1.579-6.716 1.579-4.437 0-4.042-5.526-5.924-7.896-1.293-1.628-4.642-2.961-5.135-3.948-4.411-8.818 8.836-7.968 14.615-4.738 4.212 2.353 7.504 8.652 8.69 13.423"/>
  <path id="path37" d="m152.92 146.09c4.75 5.013 14.692-1.106 18.959 3.159 8.18 8.174-19.998 4.46-25.28-1.58 2.308-3.811 3.421-2.403 6.321-1.579"/>
  <path id="path39" d="m265.1 147.67c4.533 1.394 14.519 3.479 12.642 9.476-1.804 5.767-8.168-1.464-9.481-3.159 1.439 8.508-20.802 14.793-27.253 17.371-1.753 0.701-11.873 4.322-13.035 3.158-5.646-5.649 4.284-8.014 9.479-8.685-3.007 0.989-8.386 0.56799-8.689-3.159-0.41701-5.111 3.692-3.088 7.9-3.947 9.293-1.898 21.195 0.629 28.438-4.738-8.721-2.179-15.59-2.272-24.488-0.78999-5.056 0.842-9.087 5.917-13.431 1.579-6.172-6.164 10.947-6.594 14.74-6.938 5.013-0.455 21.369-3.603 23.178-0.168"/>
  <path id="path41" d="m152.92 157.15c4.775 0 9.856-1.522 11.85 2.369-7.125 4.386-14.669 4.34-21.331-0.78999 1.807-5.205 6.96-6.839 9.481-1.579"/>
  <g fill="#fff">
   <path id="path43" d="m370.96 157.15c-1.616 0.893-2.76 1.977-4.738 2.369 1.578-0.791 3.153-1.592 4.738-2.369"/>
   <path id="path45" d="m369.38 162.67c1.078-1.198 1.586-2.323 3.16-3.157-1.054 1.052-2.106 2.104-3.16 3.157"/>
  </g>
  <g fill="#3f3f3f">
   <path id="path47" d="m34.427 176.89c-4.595 6.788-0.012997 10.466-0.512 17.94-0.615 9.23-0.051003 15.812 3.261 24.42 3.607 9.376 9.394 16.364 16.605 23.572 13.792 13.783 41.732 28.031 61.249 28.031 32.821 0 67.289-3.303 98.724-7.106 14.902-1.803 30.834-0.505 46.61 3.947 9.468 2.672 33.276 7.644 36.339 18.162-14.328-7.115-32.258-12.692-47.927-16.174-18.648-4.143-35.8-3.415-54.772-1.988-33.22 2.497-73.549 20.515-106.59 12.253-19.776-4.944-45.402-20.907-57.728-37.521-16.73-22.55-24.827-45.008-7.11-67.117 1.785 8.027 7.387 7.595 11.851 1.581"/>
   <path id="path49" d="m239.03 200.57c-0.914-2.387-1.585-4.559-1.581-7.106 1.828 2.414 1.548 4.205 1.581 7.106"/>
   <path id="path51" d="m240.61 206.89c7.155-4.554 16.145 9.005 11.85 15.001 1.076 1.322-1.212 7.711-0.789 12.635-2.155-5.285-9.927-22.841-15.799-18.161-2.353-5.981-4.474-15.357-3.952-21.319 1.585 4.835 5.075 8.375 8.69 11.844"/>
  </g>
 </g>
</svg>
